<?xml version="1.0" encoding="UTF-8"?> <svg xmlns="http://www.w3.org/2000/svg" width="98" height="32" viewBox="0 0 98 32" fill="none"> <rect x="0.5" y="0.5" width="97" height="31" rx="3.5" fill="#F5F5F5"></rect> <path d="M19.959 25.9587C25.4592 25.9587 29.918 21.4999 29.918 15.9997C29.918 10.4995 25.4592 6.04065 19.959 6.04065C14.4588 6.04065 10 10.4995 10 15.9997C10 21.4999 14.4588 25.9587 19.959 25.9587Z" fill="#FFB600"></path> <path d="M12.9507 23.0902C14.754 24.8935 17.213 26 19.9589 26C22.7048 26 25.1638 24.8935 26.9671 23.1312L19.9179 16.041L12.9507 23.0902Z" fill="black"></path> <path d="M26.9671 8.90984C25.1638 7.10656 22.7048 6 19.9589 6C17.213 6 14.754 7.10656 12.9507 8.86885L19.9999 15.918L26.9671 8.90984Z" fill="black"></path> <path d="M19.9588 23.7457C24.2367 23.7457 27.7047 20.2778 27.7047 15.9998C27.7047 11.7219 24.2367 8.25391 19.9588 8.25391C15.6808 8.25391 12.2129 11.7219 12.2129 15.9998C12.2129 20.2778 15.6808 23.7457 19.9588 23.7457Z" fill="#FFB600"></path> <path d="M21.9673 18.0491C21.4755 18.5819 20.7788 18.8688 19.9591 18.8688C19.1394 18.8688 18.4837 18.5819 17.9509 18.0491C17.4181 17.5163 17.1312 16.8196 17.1312 15.9999C17.1312 14.3196 18.3197 13.1311 19.9591 13.1311C20.7788 13.1311 21.5165 13.459 22.0083 14.0327L23.9345 12.1065C22.9509 11.0819 21.5574 10.4672 20.0001 10.4672C18.4427 10.4672 17.0902 11 16.0247 12.0655C14.9591 13.1311 14.4673 14.4426 14.4673 16.0409C14.4673 17.5983 15.0001 18.9098 16.0247 20.0163C17.0902 21.0819 18.4017 21.6147 20.0411 21.6147C21.5574 21.6147 22.9509 21 23.9345 20.0163L21.9673 18.0491Z" fill="black"></path> <path d="M37.561 21.5V11.3182H41.2897C42.0122 11.3182 42.6105 11.4375 43.0844 11.6761C43.5584 11.9115 43.913 12.2313 44.1483 12.6357C44.3837 13.0367 44.5013 13.4891 44.5013 13.9929C44.5013 14.4171 44.4234 14.7751 44.2677 15.0668C44.1119 15.3551 43.9031 15.5871 43.6412 15.7628C43.3827 15.9351 43.0977 16.0611 42.7861 16.1406V16.2401C43.1242 16.2566 43.454 16.366 43.7755 16.5682C44.1003 16.767 44.3688 17.0504 44.5809 17.4183C44.793 17.7862 44.8991 18.2337 44.8991 18.7607C44.8991 19.281 44.7764 19.7483 44.5312 20.1626C44.2892 20.5736 43.9147 20.9001 43.4076 21.142C42.9005 21.3807 42.2525 21.5 41.4637 21.5H37.561ZM39.0972 20.1825H41.3145C42.0503 20.1825 42.5773 20.04 42.8955 19.755C43.2137 19.4699 43.3728 19.1136 43.3728 18.6861C43.3728 18.3646 43.2916 18.0696 43.1292 17.8011C42.9668 17.5327 42.7348 17.3189 42.4331 17.1598C42.1349 17.0007 41.7802 16.9212 41.3692 16.9212H39.0972V20.1825ZM39.0972 15.723H41.1555C41.5001 15.723 41.81 15.6567 42.0851 15.5241C42.3635 15.3916 42.584 15.206 42.7464 14.9673C42.9121 14.7254 42.9949 14.4403 42.9949 14.1122C42.9949 13.6913 42.8474 13.3383 42.5525 13.0533C42.2575 12.7682 41.8051 12.6257 41.1952 12.6257H39.0972V15.723ZM48.8241 21.669C48.3402 21.669 47.9027 21.5795 47.5116 21.4006C47.1205 21.2183 46.8106 20.9548 46.5819 20.6101C46.3566 20.2654 46.2439 19.8428 46.2439 19.3423C46.2439 18.9115 46.3267 18.5568 46.4925 18.2784C46.6582 18 46.8819 17.7796 47.1636 17.6172C47.4453 17.4548 47.7602 17.3321 48.1082 17.2493C48.4562 17.1664 48.8109 17.1035 49.1721 17.0604C49.6295 17.0073 50.0007 16.9643 50.2858 16.9311C50.5708 16.8946 50.778 16.8366 50.9072 16.7571C51.0365 16.6776 51.1011 16.5483 51.1011 16.3693V16.3345C51.1011 15.9003 50.9785 15.5639 50.7332 15.3253C50.4913 15.0866 50.13 14.9673 49.6494 14.9673C49.1489 14.9673 48.7545 15.0784 48.4662 15.3004C48.1811 15.5192 47.9839 15.7628 47.8746 16.0312L46.4775 15.7131C46.6433 15.2491 46.8852 14.8745 47.2034 14.5895C47.5249 14.3011 47.8944 14.0923 48.3121 13.9631C48.7297 13.8305 49.1688 13.7642 49.6295 13.7642C49.9345 13.7642 50.2576 13.8007 50.599 13.8736C50.9437 13.9432 51.2652 14.0724 51.5635 14.2614C51.8651 14.4503 52.112 14.7204 52.3042 15.0717C52.4965 15.4197 52.5926 15.8722 52.5926 16.429V21.5H51.1409V20.456H51.0812C50.9851 20.6482 50.8409 20.8371 50.6487 21.0227C50.4565 21.2083 50.2095 21.3625 49.9079 21.4851C49.6063 21.6077 49.2451 21.669 48.8241 21.669ZM49.1473 20.4759C49.5583 20.4759 49.9096 20.3946 50.2013 20.2322C50.4962 20.0698 50.72 19.8577 50.8724 19.5959C51.0282 19.3307 51.1061 19.0473 51.1061 18.7457V17.7614C51.0531 17.8144 50.9503 17.8641 50.7979 17.9105C50.6487 17.9536 50.478 17.9917 50.2858 18.0249C50.0935 18.0547 49.9063 18.0829 49.724 18.1094C49.5417 18.1326 49.3892 18.1525 49.2666 18.169C48.9782 18.2055 48.7148 18.2668 48.4761 18.353C48.2408 18.4392 48.0519 18.5634 47.9094 18.7259C47.7702 18.8849 47.7006 19.0971 47.7006 19.3622C47.7006 19.7301 47.8364 20.0085 48.1082 20.1974C48.38 20.383 48.7264 20.4759 49.1473 20.4759ZM56.059 11.3182V21.5H54.5725V11.3182H56.059ZM60.2812 21.669C59.7973 21.669 59.3598 21.5795 58.9687 21.4006C58.5776 21.2183 58.2677 20.9548 58.039 20.6101C57.8136 20.2654 57.7009 19.8428 57.7009 19.3423C57.7009 18.9115 57.7838 18.5568 57.9495 18.2784C58.1152 18 58.3389 17.7796 58.6206 17.6172C58.9024 17.4548 59.2172 17.3321 59.5653 17.2493C59.9133 17.1664 60.2679 17.1035 60.6292 17.0604C61.0866 17.0073 61.4578 16.9643 61.7428 16.9311C62.0278 16.8946 62.235 16.8366 62.3643 16.7571C62.4935 16.6776 62.5581 16.5483 62.5581 16.3693V16.3345C62.5581 15.9003 62.4355 15.5639 62.1903 15.3253C61.9483 15.0866 61.587 14.9673 61.1064 14.9673C60.606 14.9673 60.2116 15.0784 59.9232 15.3004C59.6382 15.5192 59.441 15.7628 59.3316 16.0312L57.9346 15.7131C58.1003 15.2491 58.3422 14.8745 58.6604 14.5895C58.9819 14.3011 59.3515 14.0923 59.7691 13.9631C60.1867 13.8305 60.6259 13.7642 61.0866 13.7642C61.3915 13.7642 61.7146 13.8007 62.056 13.8736C62.4007 13.9432 62.7222 14.0724 63.0205 14.2614C63.3221 14.4503 63.569 14.7204 63.7613 15.0717C63.9535 15.4197 64.0496 15.8722 64.0496 16.429V21.5H62.5979V20.456H62.5383C62.4421 20.6482 62.298 20.8371 62.1057 21.0227C61.9135 21.2083 61.6666 21.3625 61.365 21.4851C61.0634 21.6077 60.7021 21.669 60.2812 21.669ZM60.6043 20.4759C61.0153 20.4759 61.3666 20.3946 61.6583 20.2322C61.9533 20.0698 62.177 19.8577 62.3295 19.5959C62.4852 19.3307 62.5631 19.0473 62.5631 18.7457V17.7614C62.5101 17.8144 62.4073 17.8641 62.2549 17.9105C62.1057 17.9536 61.935 17.9917 61.7428 18.0249C61.5506 18.0547 61.3633 18.0829 61.181 18.1094C60.9987 18.1326 60.8463 18.1525 60.7236 18.169C60.4353 18.2055 60.1718 18.2668 59.9331 18.353C59.6978 18.4392 59.5089 18.5634 59.3664 18.7259C59.2272 18.8849 59.1576 19.0971 59.1576 19.3622C59.1576 19.7301 59.2935 20.0085 59.5653 20.1974C59.837 20.383 60.1834 20.4759 60.6043 20.4759ZM67.5161 16.9659V21.5H66.0296V13.8636H67.4564V15.1065H67.5509C67.7265 14.7022 68.0016 14.3774 68.3762 14.1321C68.754 13.8868 69.2296 13.7642 69.803 13.7642C70.3234 13.7642 70.7791 13.8736 71.1702 14.0923C71.5613 14.3078 71.8646 14.6293 72.08 15.0568C72.2954 15.4844 72.4031 16.013 72.4031 16.6428V21.5H70.9166V16.8217C70.9166 16.2682 70.7725 15.8357 70.4841 15.5241C70.1958 15.2093 69.7997 15.0518 69.2959 15.0518C68.9512 15.0518 68.6446 15.1264 68.3762 15.2756C68.111 15.4247 67.9005 15.6435 67.7448 15.9318C67.5923 16.2169 67.5161 16.5616 67.5161 16.9659ZM77.6134 21.6541C76.8743 21.6541 76.2379 21.4867 75.7043 21.152C75.174 20.8139 74.7663 20.3482 74.4813 19.755C74.1962 19.1617 74.0537 18.4822 74.0537 17.7166C74.0537 16.9411 74.1995 16.2566 74.4912 15.6634C74.7829 15.0668 75.1939 14.6011 75.7242 14.2663C76.2545 13.9316 76.8792 13.7642 77.5985 13.7642C78.1785 13.7642 78.6955 13.8719 79.1496 14.0874C79.6037 14.2995 79.9699 14.5978 80.2483 14.9822C80.53 15.3667 80.6974 15.8158 80.7504 16.3295H79.3037C79.2242 15.9716 79.0419 15.6634 78.7568 15.4048C78.4751 15.1463 78.0973 15.017 77.6233 15.017C77.209 15.017 76.8461 15.1264 76.5345 15.3452C76.2263 15.5606 75.986 15.8688 75.8137 16.2699C75.6413 16.6676 75.5551 17.1383 75.5551 17.6818C75.5551 18.2386 75.6396 18.7192 75.8087 19.1236C75.9777 19.5279 76.2164 19.8411 76.5246 20.0632C76.8361 20.2853 77.2024 20.3963 77.6233 20.3963C77.905 20.3963 78.1602 20.3449 78.3889 20.2422C78.6209 20.1361 78.8148 19.9853 78.9706 19.7898C79.1297 19.5942 79.2407 19.3589 79.3037 19.0838H80.7504C80.6974 19.5777 80.5367 20.0185 80.2682 20.4062C79.9997 20.794 79.6401 21.099 79.1894 21.321C78.7419 21.5431 78.2166 21.6541 77.6134 21.6541ZM85.6313 21.6541C84.8789 21.6541 84.231 21.4934 83.6874 21.1719C83.1472 20.8471 82.7296 20.3913 82.4346 19.8047C82.1429 19.2147 81.9971 18.5237 81.9971 17.7315C81.9971 16.9493 82.1429 16.2599 82.4346 15.6634C82.7296 15.0668 83.1405 14.6011 83.6675 14.2663C84.1978 13.9316 84.8176 13.7642 85.5269 13.7642C85.9578 13.7642 86.3754 13.8355 86.7797 13.978C87.1841 14.1205 87.547 14.3442 87.8685 14.6491C88.19 14.9541 88.4436 15.3501 88.6292 15.8374C88.8148 16.3213 88.9076 16.9096 88.9076 17.6023V18.1293H82.8373V17.0156H87.4509C87.4509 16.6245 87.3714 16.2782 87.2123 15.9766C87.0532 15.6716 86.8295 15.4313 86.5411 15.2557C86.2561 15.08 85.9213 14.9922 85.5368 14.9922C85.1192 14.9922 84.7546 15.0949 84.4431 15.3004C84.1349 15.5026 83.8962 15.7678 83.7272 16.0959C83.5615 16.4207 83.4786 16.7737 83.4786 17.1548V18.0249C83.4786 18.5353 83.5681 18.9695 83.7471 19.3274C83.9294 19.6854 84.1829 19.9588 84.5077 20.1477C84.8325 20.3333 85.212 20.4261 85.6462 20.4261C85.9279 20.4261 86.1848 20.3864 86.4168 20.3068C86.6488 20.224 86.8493 20.1013 87.0184 19.9389C87.1874 19.7765 87.3167 19.576 87.4062 19.3374L88.8131 19.5909C88.7004 20.0052 88.4983 20.3681 88.2066 20.6797C87.9182 20.9879 87.5553 21.2282 87.1178 21.4006C86.6836 21.5696 86.1881 21.6541 85.6313 21.6541Z" fill="#052802" fill-opacity="0.8"></path> <rect x="0.5" y="0.5" width="97" height="31" rx="3.5" stroke="#D9D9D9"></rect> </svg> 