<?xml version="1.0" encoding="UTF-8"?> <svg xmlns="http://www.w3.org/2000/svg" width="39" height="25" viewBox="0 0 39 25" fill="none"> <path fill-rule="evenodd" clip-rule="evenodd" d="M5.10691 15.3207C5.14531 15.6471 5.08771 15.5511 5.54848 15.5703L16.8758 15.5511C16.6263 15.0135 15.8583 13.9576 15.4743 13.3816C14.9176 12.5945 14.5144 11.9609 13.9768 11.193L10.9818 6.81561C10.3482 7.75636 5.74047 14.9368 5.10691 15.3207ZM29.2975 15.5127L29.5087 15.9735L20.6196 15.9927C18.9685 15.9927 18.3542 16.2423 18.047 15.5895L28.6256 15.5703L28.568 15.3399C28.088 14.5336 27.416 13.6312 26.8785 12.8441C26.3025 11.9801 25.7841 11.193 25.1698 10.3098L21.7332 5.14531L21.5412 5.10691H21.5028C19.8517 6.93081 18.1046 10.0986 16.6071 12.2873C16.4343 12.5369 16.3767 12.6521 16.1655 12.8441L13.4968 8.90829L16.3191 4.70373C16.7798 3.99337 17.2598 3.32141 17.7014 2.63025C18.143 1.95829 18.6421 1.24793 19.1221 0.595166C19.5253 0.979144 20.0629 1.99669 20.4276 2.49586C22.0979 4.81893 23.8258 7.35318 25.3618 9.73385C26.5713 11.6153 27.992 13.6696 29.2975 15.5127ZM27.2625 5.95166L29.1055 3.34061C29.4127 3.87818 29.9119 4.60774 30.3343 5.18371C30.7759 5.81727 33.9629 10.4442 34.0589 10.7898C34.5388 11.1546 37.3995 15.6087 37.5915 15.9351C36.2667 16.0503 33.0797 15.9543 31.4286 15.9543C29.9119 15.9543 30.0271 16.1079 29.7967 15.5511L36.5931 15.4167C36.5163 15.0135 34.0013 11.3466 33.5789 10.809L30.8526 6.79641L27.3968 11.9033C27.1665 11.7881 27.3584 11.9801 27.1281 11.6729L26.3217 10.4826C25.9569 9.98343 25.5154 9.42666 25.3042 8.90829C25.5346 8.33233 26.7441 6.75802 27.2625 5.95166ZM0.403177 15.5895C0.17279 15.8967 0.0383978 16.0119 0 16.3959H38.2442C38.2058 15.9159 37.5147 15.0519 37.1883 14.572L33.6941 9.46506C33.2717 8.8507 32.9837 8.33233 32.5422 7.71796C32.139 7.16119 31.8318 6.68122 31.4094 6.06686C31.0446 5.54848 30.5839 4.89572 30.2383 4.33895C29.9311 3.85898 29.4511 3.11022 29.1055 2.70705C28.7216 2.99503 25.7649 7.58357 25.1506 8.42832L24.997 8.60111C24.4018 7.48757 20.4468 1.99669 19.1989 0H19.0645L16.1847 4.26216C15.6855 5.01092 15.2631 5.68288 14.7448 6.39324C14.476 6.77721 14.2648 7.1036 14.0152 7.44918C13.7656 7.79476 13.5352 8.19793 13.2472 8.52432C12.9977 8.31313 12.4601 7.46838 12.2297 7.14199C11.8841 6.62362 11.5769 6.12445 11.193 5.60608C10.8282 5.08771 9.48426 2.95663 9.13868 2.68785C7.64117 4.89572 6.25884 6.89241 4.78053 9.13868C4.41575 9.67625 4.07017 10.1946 3.70539 10.7322C3.32141 11.3082 3.01423 11.7881 2.63025 12.3257C1.8431 13.4392 1.17113 14.572 0.403177 15.5895ZM15.9351 13.1897C16.2999 13.8424 17.5094 15.3591 17.7206 15.9927H1.45912C1.17113 15.9735 0.633564 16.0887 0.71036 15.8199C1.43992 14.7448 2.07348 13.8232 2.78384 12.7481C3.03343 12.3833 8.8699 3.62859 9.23468 3.35981C10.3866 5.3181 12.2105 7.83316 13.5544 9.73385C13.9576 10.329 14.3224 10.8474 14.7448 11.4617C15.1287 11.9993 15.5127 12.6905 15.9351 13.1897Z" fill="#345A9B"></path> <path fill-rule="evenodd" clip-rule="evenodd" d="M5.91326 24.9776C7.35318 24.9392 7.83316 24.5553 8.14034 23.2305C8.38992 22.117 8.31313 20.7923 8.33233 19.5827L9.90664 19.5635L9.96423 24.7857L11.6729 24.7665L11.6537 18.1044L6.66202 18.0852C6.56603 19.122 6.62362 20.2547 6.60443 21.3106C6.56603 23.1537 6.52763 23.1345 5.72127 23.5761L5.91326 24.9776ZM13.2664 24.8049H14.956L15.0327 21.9826C15.8391 22.7698 16.5111 23.9985 17.2982 24.8241L19.4677 24.8049C19.0645 24.0369 17.3366 22.213 16.7031 21.3106C17.0678 20.5043 18.9493 18.7764 19.2181 18.0852L17.1446 18.066C16.8566 18.5268 15.3975 20.3891 15.0327 20.7539L15.0135 18.066H13.324L13.2664 24.8049ZM0.0191989 18.2196L0 20.2547C0.479973 19.9283 0.787155 19.5635 1.67031 19.6019C2.39986 19.6403 2.95663 20.0627 3.07183 20.6579L0.844752 20.6771L0.825553 21.9826L3.16782 22.0402C2.86064 23.2497 1.45912 23.7297 0.0191989 22.6162L0 24.6321C6.83481 26.8399 6.71962 16.0118 0.0191989 18.2196ZM22.6739 22.2706C22.8659 21.5602 23.1155 20.7731 23.4227 20.2163L24.0562 22.309L22.6739 22.2706ZM29.6239 22.597C30.6799 22.5394 31.6398 22.6354 32.3118 22.0402C32.8493 21.5602 33.1373 20.5235 32.8877 19.5635C32.4078 17.7205 29.8543 18.0276 27.8576 18.0852L27.9152 24.8049L29.5855 24.7857L29.6239 22.597ZM29.6239 19.506C30.5071 19.4868 30.6607 19.5252 31.1214 19.9283C31.3134 20.0627 31.3134 20.6003 31.1022 20.7539C30.6031 21.1571 30.3343 21.1763 29.5855 21.1571L29.6239 19.506ZM38.2442 19.5635V18.066H33.7325L33.6941 19.5444H35.1148L35.134 24.7665L36.8811 24.7857V19.6019L38.2442 19.5635ZM24.517 23.6529L25.0546 24.8241L26.8209 24.7857C26.2257 22.8466 25.1122 19.8515 24.3058 18.0852L22.4051 18.1236L19.8901 24.8049H21.6756L22.2323 23.6529H24.517V23.6529Z" fill="#345A9B"></path> </svg> 