<?xml version="1.0" encoding="UTF-8"?> <svg xmlns="http://www.w3.org/2000/svg" width="100" height="32" viewBox="0 0 100 32" fill="none"> <rect x="0.5" y="0.5" width="99" height="31" rx="3.5" fill="#F5F5F5"></rect> <g clip-path="url(#clip0_344_578)"> <path d="M23.24 22.248H16.748V10.584H23.24V22.248Z" fill="#7375CF"></path> <path d="M17.168 16.416C17.168 14.052 18.272 11.94 20 10.584C18.74 9.588 17.144 9 15.416 9C11.324 9 8 12.324 8 16.416C8 20.508 11.324 23.832 15.416 23.832C17.144 23.832 18.74 23.244 20 22.248C18.272 20.892 17.168 18.78 17.168 16.416Z" fill="#EB001B"></path> <path d="M32 16.416C32 20.508 28.676 23.832 24.584 23.832C22.856 23.832 21.26 23.244 20 22.248C21.728 20.892 22.832 18.78 22.832 16.416C22.832 14.052 21.728 11.94 20 10.584C21.26 9.588 22.856 9 24.584 9C28.676 9 32 12.324 32 16.416Z" fill="#00A2E5"></path> </g> <path d="M37.6176 11.3182H39.482L42.7235 19.233H42.8428L46.0843 11.3182H47.9486V21.5H46.4869V14.1321H46.3925L43.3896 21.4851H42.1766L39.1737 14.1271H39.0793V21.5H37.6176V11.3182ZM52.2851 21.669C51.8012 21.669 51.3637 21.5795 50.9726 21.4006C50.5815 21.2183 50.2716 20.9548 50.0429 20.6101C49.8175 20.2654 49.7048 19.8428 49.7048 19.3423C49.7048 18.9115 49.7877 18.5568 49.9534 18.2784C50.1191 18 50.3428 17.7796 50.6246 17.6172C50.9063 17.4548 51.2211 17.3321 51.5692 17.2493C51.9172 17.1664 52.2718 17.1035 52.6331 17.0604C53.0905 17.0073 53.4617 16.9643 53.7467 16.9311C54.0318 16.8946 54.2389 16.8366 54.3682 16.7571C54.4974 16.6776 54.5621 16.5483 54.5621 16.3693V16.3345C54.5621 15.9003 54.4394 15.5639 54.1942 15.3253C53.9522 15.0866 53.5909 14.9673 53.1104 14.9673C52.6099 14.9673 52.2155 15.0784 51.9271 15.3004C51.6421 15.5192 51.4449 15.7628 51.3355 16.0312L49.9385 15.7131C50.1042 15.2491 50.3461 14.8745 50.6643 14.5895C50.9858 14.3011 51.3554 14.0923 51.773 13.9631C52.1906 13.8305 52.6298 13.7642 53.0905 13.7642C53.3954 13.7642 53.7185 13.8007 54.0599 13.8736C54.4046 13.9432 54.7261 14.0724 55.0244 14.2614C55.326 14.4503 55.5729 14.7204 55.7652 15.0717C55.9574 15.4197 56.0535 15.8722 56.0535 16.429V21.5H54.6018V20.456H54.5422C54.4461 20.6482 54.3019 20.8371 54.1096 21.0227C53.9174 21.2083 53.6705 21.3625 53.3689 21.4851C53.0673 21.6077 52.706 21.669 52.2851 21.669ZM52.6082 20.4759C53.0192 20.4759 53.3705 20.3946 53.6622 20.2322C53.9572 20.0698 54.1809 19.8577 54.3334 19.5959C54.4891 19.3307 54.567 19.0473 54.567 18.7457V17.7614C54.514 17.8144 54.4113 17.8641 54.2588 17.9105C54.1096 17.9536 53.939 17.9917 53.7467 18.0249C53.5545 18.0547 53.3672 18.0829 53.1849 18.1094C53.0026 18.1326 52.8502 18.1525 52.7275 18.169C52.4392 18.2055 52.1757 18.2668 51.9371 18.353C51.7017 18.4392 51.5128 18.5634 51.3703 18.7259C51.2311 18.8849 51.1615 19.0971 51.1615 19.3622C51.1615 19.7301 51.2974 20.0085 51.5692 20.1974C51.8409 20.383 52.1873 20.4759 52.6082 20.4759ZM61.3247 21.6541C60.5723 21.6541 59.9243 21.4934 59.3808 21.1719C58.8405 20.8471 58.4229 20.3913 58.1279 19.8047C57.8363 19.2147 57.6904 18.5237 57.6904 17.7315C57.6904 16.9493 57.8363 16.2599 58.1279 15.6634C58.4229 15.0668 58.8339 14.6011 59.3609 14.2663C59.8912 13.9316 60.511 13.7642 61.2203 13.7642C61.6511 13.7642 62.0687 13.8355 62.4731 13.978C62.8775 14.1205 63.2404 14.3442 63.5619 14.6491C63.8834 14.9541 64.1369 15.3501 64.3225 15.8374C64.5081 16.3213 64.6009 16.9096 64.6009 17.6023V18.1293H58.5306V17.0156H63.1443C63.1443 16.6245 63.0647 16.2782 62.9056 15.9766C62.7465 15.6716 62.5228 15.4313 62.2345 15.2557C61.9494 15.08 61.6147 14.9922 61.2302 14.9922C60.8126 14.9922 60.448 15.0949 60.1365 15.3004C59.8282 15.5026 59.5896 15.7678 59.4205 16.0959C59.2548 16.4207 59.172 16.7737 59.172 17.1548V18.0249C59.172 18.5353 59.2615 18.9695 59.4404 19.3274C59.6227 19.6854 59.8763 19.9588 60.2011 20.1477C60.5259 20.3333 60.9054 20.4261 61.3396 20.4261C61.6213 20.4261 61.8782 20.3864 62.1102 20.3068C62.3422 20.224 62.5427 20.1013 62.7117 19.9389C62.8808 19.7765 63.01 19.576 63.0995 19.3374L64.5065 19.5909C64.3938 20.0052 64.1916 20.3681 63.8999 20.6797C63.6116 20.9879 63.2487 21.2282 62.8112 21.4006C62.377 21.5696 61.8815 21.6541 61.3247 21.6541ZM71.9726 15.728L70.6253 15.9666C70.5689 15.7943 70.4794 15.6302 70.3568 15.4744C70.2375 15.3187 70.0751 15.1911 69.8696 15.0916C69.6641 14.9922 69.4072 14.9425 69.099 14.9425C68.6781 14.9425 68.3267 15.0369 68.045 15.2259C67.7633 15.4115 67.6224 15.6518 67.6224 15.9467C67.6224 16.2019 67.7169 16.4074 67.9058 16.5632C68.0947 16.719 68.3997 16.8466 68.8206 16.946L70.0336 17.2244C70.7363 17.3868 71.26 17.6371 71.6047 17.9751C71.9494 18.3132 72.1217 18.7524 72.1217 19.2926C72.1217 19.75 71.9891 20.1577 71.724 20.5156C71.4622 20.8703 71.0959 21.1487 70.6253 21.3509C70.1579 21.553 69.616 21.6541 68.9996 21.6541C68.1444 21.6541 67.4468 21.4718 66.9065 21.1072C66.3663 20.7393 66.0348 20.2173 65.9122 19.5412L67.349 19.3224C67.4385 19.697 67.6224 19.9804 67.9008 20.1726C68.1792 20.3615 68.5422 20.456 68.9896 20.456C69.4768 20.456 69.8663 20.3549 70.1579 20.1527C70.4496 19.9472 70.5954 19.697 70.5954 19.402C70.5954 19.1634 70.5059 18.9628 70.327 18.8004C70.1513 18.638 69.8812 18.5154 69.5166 18.4325L68.224 18.1491C67.5114 17.9867 66.9844 17.7282 66.643 17.3736C66.305 17.0189 66.1359 16.5698 66.1359 16.0263C66.1359 15.5755 66.2619 15.1811 66.5138 14.843C66.7657 14.505 67.1137 14.2415 67.5578 14.0526C68.0019 13.8603 68.5107 13.7642 69.0841 13.7642C69.9094 13.7642 70.559 13.9432 71.0329 14.3011C71.5069 14.6558 71.8201 15.1314 71.9726 15.728ZM77.3208 13.8636V15.0568H73.1496V13.8636H77.3208ZM74.2682 12.0341H75.7547V19.2578C75.7547 19.5462 75.7978 19.7633 75.884 19.9091C75.9701 20.0516 76.0812 20.1494 76.2171 20.2024C76.3563 20.2521 76.5071 20.277 76.6695 20.277C76.7888 20.277 76.8932 20.2687 76.9827 20.2521C77.0722 20.2356 77.1418 20.2223 77.1915 20.2124L77.46 21.4403C77.3738 21.4735 77.2512 21.5066 77.0921 21.5398C76.933 21.5762 76.7341 21.5961 76.4955 21.5994C76.1044 21.6061 75.7398 21.5365 75.4017 21.3906C75.0637 21.2448 74.7902 21.0194 74.5814 20.7145C74.3726 20.4096 74.2682 20.0268 74.2682 19.5661V12.0341ZM78.9651 21.5V13.8636H80.4019V15.0767H80.4814C80.6206 14.6657 80.8659 14.3426 81.2172 14.1072C81.5719 13.8686 81.9729 13.7493 82.4204 13.7493C82.5132 13.7493 82.6225 13.7526 82.7485 13.7592C82.8778 13.7659 82.9788 13.7741 83.0518 13.7841V15.206C82.9921 15.1894 82.886 15.1712 82.7336 15.1513C82.5811 15.1281 82.4287 15.1165 82.2762 15.1165C81.9249 15.1165 81.6117 15.1911 81.3366 15.3402C81.0648 15.486 80.8493 15.6899 80.6903 15.9517C80.5312 16.2102 80.4516 16.5052 80.4516 16.8366V21.5H78.9651ZM87.2813 21.6541C86.5654 21.6541 85.9407 21.4901 85.407 21.1619C84.8734 20.8338 84.4591 20.3748 84.1642 19.7848C83.8692 19.1948 83.7217 18.5054 83.7217 17.7166C83.7217 16.9245 83.8692 16.2318 84.1642 15.6385C84.4591 15.0452 84.8734 14.5845 85.407 14.2564C85.9407 13.9283 86.5654 13.7642 87.2813 13.7642C87.9972 13.7642 88.622 13.9283 89.1556 14.2564C89.6892 14.5845 90.1035 15.0452 90.3985 15.6385C90.6935 16.2318 90.841 16.9245 90.841 17.7166C90.841 18.5054 90.6935 19.1948 90.3985 19.7848C90.1035 20.3748 89.6892 20.8338 89.1556 21.1619C88.622 21.4901 87.9972 21.6541 87.2813 21.6541ZM87.2863 20.4062C87.7503 20.4062 88.1348 20.2836 88.4397 20.0384C88.7446 19.7931 88.97 19.4666 89.1159 19.0589C89.265 18.6513 89.3396 18.2022 89.3396 17.7116C89.3396 17.2244 89.265 16.777 89.1159 16.3693C88.97 15.9583 88.7446 15.6286 88.4397 15.38C88.1348 15.1314 87.7503 15.0071 87.2863 15.0071C86.819 15.0071 86.4312 15.1314 86.123 15.38C85.818 15.6286 85.591 15.9583 85.4419 16.3693C85.296 16.777 85.2231 17.2244 85.2231 17.7116C85.2231 18.2022 85.296 18.6513 85.4419 19.0589C85.591 19.4666 85.818 19.7931 86.123 20.0384C86.4312 20.2836 86.819 20.4062 87.2863 20.4062Z" fill="#052802" fill-opacity="0.8"></path> <rect x="0.5" y="0.5" width="99" height="31" rx="3.5" stroke="#D9D9D9"></rect> <defs> <clipPath id="clip0_344_578"> <rect width="24" height="14.88" fill="white" transform="translate(8 9)"></rect> </clipPath> </defs> </svg> 