<?xml version="1.0" encoding="UTF-8"?> <svg xmlns="http://www.w3.org/2000/svg" width="121" height="32" viewBox="0 0 121 32" fill="none"> <rect x="0.5" y="0.5" width="120" height="31" rx="3.5" fill="#F5F5F5"></rect> <path d="M23.2736 9.59631H16.7812V21.4103H23.2736V9.59631Z" fill="#EA6004"></path> <path d="M17.1531 15.5036C17.1531 13.1089 18.2707 10.9802 19.9736 9.5966C18.6964 8.5855 17.1532 8.00012 15.397 8.00012C11.2994 8.00012 8 11.3527 8 15.5036C8 19.6544 11.2994 23.007 15.397 23.007C17.1532 23.007 18.6964 22.4217 19.9736 21.4106C18.2707 20.0269 17.1531 17.8983 17.1531 15.5036Z" fill="#E20B0F"></path> <path d="M31.999 15.5033C31.999 19.6542 28.6996 23.0068 24.602 23.0068C22.8458 23.0068 21.3026 22.4214 20.0254 21.4103C21.7815 20.0267 22.8458 17.8981 22.8458 15.5033C22.8458 13.1086 21.7283 10.98 20.0254 9.59636C21.3026 8.58525 22.8458 7.99988 24.602 7.99988C28.6996 7.99988 31.999 11.3525 31.999 15.5033Z" fill="#F49B00"></path> <path d="M37.4877 11.3182H39.3521L42.5936 19.233H42.7129L45.9544 11.3182H47.8187V21.5H46.3571V14.1321H46.2626L43.2598 21.4851H42.0467L39.0439 14.1271H38.9494V21.5H37.4877V11.3182ZM52.1552 21.669C51.6713 21.669 51.2338 21.5795 50.8427 21.4006C50.4516 21.2183 50.1417 20.9548 49.913 20.6101C49.6876 20.2654 49.5749 19.8428 49.5749 19.3423C49.5749 18.9115 49.6578 18.5568 49.8235 18.2784C49.9892 18 50.2129 17.7796 50.4947 17.6172C50.7764 17.4548 51.0913 17.3321 51.4393 17.2493C51.7873 17.1664 52.1419 17.1035 52.5032 17.0604C52.9606 17.0073 53.3318 16.9643 53.6168 16.9311C53.9019 16.8946 54.109 16.8366 54.2383 16.7571C54.3675 16.6776 54.4322 16.5483 54.4322 16.3693V16.3345C54.4322 15.9003 54.3095 15.5639 54.0643 15.3253C53.8223 15.0866 53.4611 14.9673 52.9805 14.9673C52.48 14.9673 52.0856 15.0784 51.7972 15.3004C51.5122 15.5192 51.315 15.7628 51.2056 16.0312L49.8086 15.7131C49.9743 15.2491 50.2163 14.8745 50.5344 14.5895C50.8559 14.3011 51.2255 14.0923 51.6431 13.9631C52.0607 13.8305 52.4999 13.7642 52.9606 13.7642C53.2655 13.7642 53.5887 13.8007 53.93 13.8736C54.2747 13.9432 54.5962 14.0724 54.8945 14.2614C55.1961 14.4503 55.4431 14.7204 55.6353 15.0717C55.8275 15.4197 55.9237 15.8722 55.9237 16.429V21.5H54.4719V20.456H54.4123C54.3162 20.6482 54.172 20.8371 53.9798 21.0227C53.7875 21.2083 53.5406 21.3625 53.239 21.4851C52.9374 21.6077 52.5761 21.669 52.1552 21.669ZM52.4783 20.4759C52.8893 20.4759 53.2406 20.3946 53.5323 20.2322C53.8273 20.0698 54.051 19.8577 54.2035 19.5959C54.3593 19.3307 54.4371 19.0473 54.4371 18.7457V17.7614C54.3841 17.8144 54.2814 17.8641 54.1289 17.9105C53.9798 17.9536 53.8091 17.9917 53.6168 18.0249C53.4246 18.0547 53.2373 18.0829 53.055 18.1094C52.8728 18.1326 52.7203 18.1525 52.5977 18.169C52.3093 18.2055 52.0458 18.2668 51.8072 18.353C51.5719 18.4392 51.3829 18.5634 51.2404 18.7259C51.1012 18.8849 51.0316 19.0971 51.0316 19.3622C51.0316 19.7301 51.1675 20.0085 51.4393 20.1974C51.7111 20.383 52.0574 20.4759 52.4783 20.4759ZM63.6259 15.728L62.2786 15.9666C62.2222 15.7943 62.1328 15.6302 62.0101 15.4744C61.8908 15.3187 61.7284 15.1911 61.5229 15.0916C61.3174 14.9922 61.0605 14.9425 60.7523 14.9425C60.3314 14.9425 59.9801 15.0369 59.6983 15.2259C59.4166 15.4115 59.2757 15.6518 59.2757 15.9467C59.2757 16.2019 59.3702 16.4074 59.5591 16.5632C59.748 16.719 60.053 16.8466 60.4739 16.946L61.687 17.2244C62.3896 17.3868 62.9133 17.6371 63.258 17.9751C63.6027 18.3132 63.775 18.7524 63.775 19.2926C63.775 19.75 63.6425 20.1577 63.3773 20.5156C63.1155 20.8703 62.7492 21.1487 62.2786 21.3509C61.8113 21.553 61.2694 21.6541 60.6529 21.6541C59.7978 21.6541 59.1001 21.4718 58.5598 21.1072C58.0196 20.7393 57.6882 20.2173 57.5655 19.5412L59.0023 19.3224C59.0918 19.697 59.2757 19.9804 59.5542 20.1726C59.8326 20.3615 60.1955 20.456 60.6429 20.456C61.1301 20.456 61.5196 20.3549 61.8113 20.1527C62.1029 19.9472 62.2488 19.697 62.2488 19.402C62.2488 19.1634 62.1593 18.9628 61.9803 18.8004C61.8046 18.638 61.5345 18.5154 61.1699 18.4325L59.8773 18.1491C59.1647 17.9867 58.6377 17.7282 58.2963 17.3736C57.9583 17.0189 57.7892 16.5698 57.7892 16.0263C57.7892 15.5755 57.9152 15.1811 58.1671 14.843C58.419 14.505 58.767 14.2415 59.2111 14.0526C59.6552 13.8603 60.164 13.7642 60.7374 13.7642C61.5627 13.7642 62.2123 13.9432 62.6863 14.3011C63.1602 14.6558 63.4734 15.1314 63.6259 15.728ZM68.9741 13.8636V15.0568H64.8029V13.8636H68.9741ZM65.9215 12.0341H67.408V19.2578C67.408 19.5462 67.4511 19.7633 67.5373 19.9091C67.6235 20.0516 67.7345 20.1494 67.8704 20.2024C68.0096 20.2521 68.1604 20.277 68.3228 20.277C68.4421 20.277 68.5465 20.2687 68.636 20.2521C68.7255 20.2356 68.7951 20.2223 68.8448 20.2124L69.1133 21.4403C69.0271 21.4735 68.9045 21.5066 68.7454 21.5398C68.5863 21.5762 68.3874 21.5961 68.1488 21.5994C67.7577 21.6061 67.3931 21.5365 67.055 21.3906C66.717 21.2448 66.4435 21.0194 66.2347 20.7145C66.0259 20.4096 65.9215 20.0268 65.9215 19.5661V12.0341ZM73.8276 21.6541C73.0752 21.6541 72.4273 21.4934 71.8837 21.1719C71.3435 20.8471 70.9258 20.3913 70.6309 19.8047C70.3392 19.2147 70.1934 18.5237 70.1934 17.7315C70.1934 16.9493 70.3392 16.2599 70.6309 15.6634C70.9258 15.0668 71.3368 14.6011 71.8638 14.2663C72.3941 13.9316 73.0139 13.7642 73.7232 13.7642C74.1541 13.7642 74.5717 13.8355 74.976 13.978C75.3804 14.1205 75.7433 14.3442 76.0648 14.6491C76.3863 14.9541 76.6399 15.3501 76.8255 15.8374C77.0111 16.3213 77.1039 16.9096 77.1039 17.6023V18.1293H71.0336V17.0156H75.6472C75.6472 16.6245 75.5676 16.2782 75.4086 15.9766C75.2495 15.6716 75.0257 15.4313 74.7374 15.2557C74.4524 15.08 74.1176 14.9922 73.7331 14.9922C73.3155 14.9922 72.9509 15.0949 72.6394 15.3004C72.3311 15.5026 72.0925 15.7678 71.9235 16.0959C71.7578 16.4207 71.6749 16.7737 71.6749 17.1548V18.0249C71.6749 18.5353 71.7644 18.9695 71.9434 19.3274C72.1257 19.6854 72.3792 19.9588 72.704 20.1477C73.0288 20.3333 73.4083 20.4261 73.8425 20.4261C74.1242 20.4261 74.3811 20.3864 74.6131 20.3068C74.8451 20.224 75.0456 20.1013 75.2147 19.9389C75.3837 19.7765 75.513 19.576 75.6025 19.3374L77.0094 19.5909C76.8967 20.0052 76.6945 20.3681 76.4029 20.6797C76.1145 20.9879 75.7516 21.2282 75.3141 21.4006C74.8799 21.5696 74.3844 21.6541 73.8276 21.6541ZM78.7532 21.5V13.8636H80.19V15.0767H80.2695C80.4087 14.6657 80.654 14.3426 81.0053 14.1072C81.36 13.8686 81.761 13.7493 82.2085 13.7493C82.3013 13.7493 82.4106 13.7526 82.5366 13.7592C82.6658 13.7659 82.7669 13.7741 82.8398 13.7841V15.206C82.7802 15.1894 82.6741 15.1712 82.5217 15.1513C82.3692 15.1281 82.2167 15.1165 82.0643 15.1165C81.713 15.1165 81.3997 15.1911 81.1246 15.3402C80.8529 15.486 80.6374 15.6899 80.4783 15.9517C80.3192 16.2102 80.2397 16.5052 80.2397 16.8366V21.5H78.7532ZM87.0694 21.6541C86.3303 21.6541 85.694 21.4867 85.1603 21.152C84.63 20.8139 84.2224 20.3482 83.9373 19.755C83.6523 19.1617 83.5098 18.4822 83.5098 17.7166C83.5098 16.9411 83.6556 16.2566 83.9473 15.6634C84.2389 15.0668 84.6499 14.6011 85.1802 14.2663C85.7105 13.9316 86.3353 13.7642 87.0545 13.7642C87.6345 13.7642 88.1516 13.8719 88.6056 14.0874C89.0597 14.2995 89.426 14.5978 89.7044 14.9822C89.9861 15.3667 90.1535 15.8158 90.2065 16.3295H88.7598C88.6802 15.9716 88.4979 15.6634 88.2129 15.4048C87.9312 15.1463 87.5533 15.017 87.0794 15.017C86.6651 15.017 86.3021 15.1264 85.9906 15.3452C85.6824 15.5606 85.4421 15.8688 85.2697 16.2699C85.0974 16.6676 85.0112 17.1383 85.0112 17.6818C85.0112 18.2386 85.0957 18.7192 85.2647 19.1236C85.4338 19.5279 85.6724 19.8411 85.9806 20.0632C86.2922 20.2853 86.6584 20.3963 87.0794 20.3963C87.3611 20.3963 87.6163 20.3449 87.845 20.2422C88.077 20.1361 88.2709 19.9853 88.4267 19.7898C88.5858 19.5942 88.6968 19.3589 88.7598 19.0838H90.2065C90.1535 19.5777 89.9927 20.0185 89.7243 20.4062C89.4558 20.794 89.0962 21.099 88.6454 21.321C88.198 21.5431 87.6726 21.6541 87.0694 21.6541ZM94.0185 21.669C93.5346 21.669 93.0971 21.5795 92.706 21.4006C92.3149 21.2183 92.005 20.9548 91.7763 20.6101C91.5509 20.2654 91.4382 19.8428 91.4382 19.3423C91.4382 18.9115 91.5211 18.5568 91.6868 18.2784C91.8525 18 92.0762 17.7796 92.358 17.6172C92.6397 17.4548 92.9545 17.3321 93.3026 17.2493C93.6506 17.1664 94.0052 17.1035 94.3665 17.0604C94.8239 17.0073 95.1951 16.9643 95.4801 16.9311C95.7652 16.8946 95.9723 16.8366 96.1016 16.7571C96.2308 16.6776 96.2955 16.5483 96.2955 16.3693V16.3345C96.2955 15.9003 96.1728 15.5639 95.9276 15.3253C95.6856 15.0866 95.3243 14.9673 94.8438 14.9673C94.3433 14.9673 93.9489 15.0784 93.6605 15.3004C93.3755 15.5192 93.1783 15.7628 93.0689 16.0312L91.6719 15.7131C91.8376 15.2491 92.0795 14.8745 92.3977 14.5895C92.7192 14.3011 93.0888 14.0923 93.5064 13.9631C93.924 13.8305 94.3632 13.7642 94.8239 13.7642C95.1288 13.7642 95.4519 13.8007 95.7933 13.8736C96.138 13.9432 96.4595 14.0724 96.7578 14.2614C97.0594 14.4503 97.3063 14.7204 97.4986 15.0717C97.6908 15.4197 97.7869 15.8722 97.7869 16.429V21.5H96.3352V20.456H96.2756C96.1795 20.6482 96.0353 20.8371 95.843 21.0227C95.6508 21.2083 95.4039 21.3625 95.1023 21.4851C94.8007 21.6077 94.4394 21.669 94.0185 21.669ZM94.3416 20.4759C94.7526 20.4759 95.1039 20.3946 95.3956 20.2322C95.6906 20.0698 95.9143 19.8577 96.0668 19.5959C96.2225 19.3307 96.3004 19.0473 96.3004 18.7457V17.7614C96.2474 17.8144 96.1446 17.8641 95.9922 17.9105C95.843 17.9536 95.6723 17.9917 95.4801 18.0249C95.2879 18.0547 95.1006 18.0829 94.9183 18.1094C94.736 18.1326 94.5836 18.1525 94.4609 18.169C94.1726 18.2055 93.9091 18.2668 93.6705 18.353C93.4351 18.4392 93.2462 18.5634 93.1037 18.7259C92.9645 18.8849 92.8949 19.0971 92.8949 19.3622C92.8949 19.7301 93.0308 20.0085 93.3026 20.1974C93.5743 20.383 93.9207 20.4759 94.3416 20.4759ZM99.7669 21.5V13.8636H101.204V15.0767H101.283C101.422 14.6657 101.668 14.3426 102.019 14.1072C102.374 13.8686 102.775 13.7493 103.222 13.7493C103.315 13.7493 103.424 13.7526 103.55 13.7592C103.68 13.7659 103.781 13.7741 103.854 13.7841V15.206C103.794 15.1894 103.688 15.1712 103.535 15.1513C103.383 15.1281 103.23 15.1165 103.078 15.1165C102.727 15.1165 102.413 15.1911 102.138 15.3402C101.867 15.486 101.651 15.6899 101.492 15.9517C101.333 16.2102 101.253 16.5052 101.253 16.8366V21.5H99.7669ZM107.725 21.6491C107.109 21.6491 106.558 21.4917 106.075 21.1768C105.594 20.8587 105.216 20.4062 104.941 19.8196C104.669 19.2296 104.533 18.522 104.533 17.6967C104.533 16.8714 104.671 16.1655 104.946 15.5788C105.224 14.9922 105.606 14.5431 106.089 14.2315C106.573 13.92 107.122 13.7642 107.735 13.7642C108.209 13.7642 108.59 13.8438 108.879 14.0028C109.17 14.1586 109.396 14.3409 109.555 14.5497C109.717 14.7585 109.843 14.9425 109.933 15.1016H110.022V11.3182H111.509V21.5H110.057V20.3118H109.933C109.843 20.4742 109.714 20.6598 109.545 20.8686C109.379 21.0774 109.15 21.2597 108.859 21.4155C108.567 21.5713 108.189 21.6491 107.725 21.6491ZM108.053 20.3814C108.481 20.3814 108.842 20.2687 109.137 20.0433C109.435 19.8146 109.661 19.4981 109.813 19.0938C109.969 18.6894 110.047 18.2187 110.047 17.6818C110.047 17.1515 109.971 16.6875 109.818 16.2898C109.666 15.892 109.442 15.5821 109.147 15.3601C108.852 15.138 108.487 15.027 108.053 15.027C107.606 15.027 107.233 15.143 106.935 15.375C106.636 15.607 106.411 15.9235 106.259 16.3246C106.109 16.7256 106.035 17.178 106.035 17.6818C106.035 18.1922 106.111 18.6513 106.263 19.0589C106.416 19.4666 106.641 19.7898 106.94 20.0284C107.241 20.2637 107.612 20.3814 108.053 20.3814Z" fill="#052802" fill-opacity="0.8"></path> <rect x="0.5" y="0.5" width="120" height="31" rx="3.5" stroke="#D9D9D9"></rect> </svg> 