<?xml version="1.0" encoding="UTF-8"?> <svg xmlns="http://www.w3.org/2000/svg" width="109" height="32" viewBox="0 0 109 32" fill="none"> <rect x="0.5" y="0.5" width="108" height="31" rx="3.5" fill="#F5F5F5"></rect> <path d="M11 6H29.5714V22.73H18.1432L19.1427 21.0397L14.0559 26V22.73H11V6ZM26.6211 16.5045L26.8065 9.59121H24.9983L25.1851 16.5045H26.6211ZM25.062 19.1387H26.733V17.5109H25.062V19.1387ZM13.9224 14.3656C13.9224 16.8061 15.5758 19.248 18.8598 19.2583C22.1439 19.2687 23.7572 16.81 23.7572 14.3656C23.7572 11.9212 22.1345 9.47289 18.8411 9.47289C15.5811 9.48199 13.9224 11.9238 13.9224 14.3656ZM18.8745 11.08H18.8932C20.9575 11.08 21.977 12.6974 21.977 14.3123C21.977 15.9272 20.9575 17.5447 18.8932 17.5447H18.8745C16.8234 17.5343 15.7692 15.9233 15.7692 14.3123C15.7692 12.7013 16.8288 11.0903 18.8798 11.08H18.8745Z" fill="#F0047F"></path> <path d="M46.0744 16.4091C46.0744 17.4962 45.8755 18.4309 45.4778 19.2131C45.0801 19.992 44.5349 20.5919 43.8422 21.0128C43.1528 21.4304 42.3689 21.6392 41.4906 21.6392C40.609 21.6392 39.8218 21.4304 39.1291 21.0128C38.4397 20.5919 37.8961 19.9903 37.4984 19.2081C37.1007 18.4259 36.9018 17.4929 36.9018 16.4091C36.9018 15.322 37.1007 14.389 37.4984 13.6101C37.8961 12.8279 38.4397 12.228 39.1291 11.8104C39.8218 11.3894 40.609 11.179 41.4906 11.179C42.3689 11.179 43.1528 11.3894 43.8422 11.8104C44.5349 12.228 45.0801 12.8279 45.4778 13.6101C45.8755 14.389 46.0744 15.322 46.0744 16.4091ZM44.5531 16.4091C44.5531 15.5805 44.4189 14.8828 44.1504 14.3161C43.8852 13.746 43.5207 13.3151 43.0566 13.0234C42.5959 12.7285 42.0739 12.581 41.4906 12.581C40.9039 12.581 40.3803 12.7285 39.9196 13.0234C39.4589 13.3151 39.0943 13.746 38.8258 14.3161C38.5607 14.8828 38.4281 15.5805 38.4281 16.4091C38.4281 17.2377 38.5607 17.937 38.8258 18.5071C39.0943 19.0739 39.4589 19.5047 39.9196 19.7997C40.3803 20.0914 40.9039 20.2372 41.4906 20.2372C42.0739 20.2372 42.5959 20.0914 43.0566 19.7997C43.5207 19.5047 43.8852 19.0739 44.1504 18.5071C44.4189 17.937 44.5531 17.2377 44.5531 16.4091ZM49.7447 11.3182L49.6154 18.5717H48.2383L48.109 11.3182H49.7447ZM48.9293 21.5945C48.6542 21.5945 48.4189 21.4983 48.2234 21.3061C48.0278 21.1106 47.9317 20.8752 47.935 20.6001C47.9317 20.3284 48.0278 20.0964 48.2234 19.9041C48.4189 19.7086 48.6542 19.6108 48.9293 19.6108C49.1978 19.6108 49.4298 19.7086 49.6254 19.9041C49.8209 20.0964 49.9203 20.3284 49.9237 20.6001C49.9203 20.7824 49.8723 20.9498 49.7795 21.1023C49.69 21.2514 49.5707 21.3707 49.4215 21.4602C49.2724 21.5497 49.1083 21.5945 48.9293 21.5945ZM51.3343 23.9609V20.1974H52.0055C52.2342 20.0052 52.448 19.7318 52.6468 19.3771C52.8457 19.0225 53.0147 18.5436 53.1539 17.9403C53.2931 17.3371 53.3893 16.5632 53.4423 15.6186L53.6809 11.3182H59.96V20.1974H61.1135V23.946H59.6419V21.5H52.8059V23.9609H51.3343ZM53.8152 20.1974H58.4885V12.6406H55.073L54.9139 15.6186C54.8708 16.3378 54.7995 16.9841 54.7001 17.5575C54.604 18.1309 54.4797 18.638 54.3272 19.0788C54.1781 19.5163 54.0074 19.8892 53.8152 20.1974ZM65.9682 21.6541C65.2158 21.6541 64.5679 21.4934 64.0243 21.1719C63.4841 20.8471 63.0665 20.3913 62.7715 19.8047C62.4798 19.2147 62.334 18.5237 62.334 17.7315C62.334 16.9493 62.4798 16.2599 62.7715 15.6634C63.0665 15.0668 63.4775 14.6011 64.0044 14.2663C64.5347 13.9316 65.1545 13.7642 65.8638 13.7642C66.2947 13.7642 66.7123 13.8355 67.1167 13.978C67.521 14.1205 67.8839 14.3442 68.2054 14.6491C68.5269 14.9541 68.7805 15.3501 68.9661 15.8374C69.1517 16.3213 69.2445 16.9096 69.2445 17.6023V18.1293H63.1742V17.0156H67.7878C67.7878 16.6245 67.7083 16.2782 67.5492 15.9766C67.3901 15.6716 67.1664 15.4313 66.878 15.2557C66.593 15.08 66.2582 14.9922 65.8738 14.9922C65.4561 14.9922 65.0916 15.0949 64.78 15.3004C64.4718 15.5026 64.2331 15.7678 64.0641 16.0959C63.8984 16.4207 63.8155 16.7737 63.8155 17.1548V18.0249C63.8155 18.5353 63.905 18.9695 64.084 19.3274C64.2663 19.6854 64.5198 19.9588 64.8446 20.1477C65.1694 20.3333 65.5489 20.4261 65.9831 20.4261C66.2649 20.4261 66.5217 20.3864 66.7537 20.3068C66.9857 20.224 67.1863 20.1013 67.3553 19.9389C67.5243 19.7765 67.6536 19.576 67.7431 19.3374L69.15 19.5909C69.0373 20.0052 68.8352 20.3681 68.5435 20.6797C68.2551 20.9879 67.8922 21.2282 67.4547 21.4006C67.0205 21.5696 66.525 21.6541 65.9682 21.6541ZM76.0692 17.0405V18.3281H71.9329V17.0405H76.0692ZM72.3505 13.8636V21.5H70.8938V13.8636H72.3505ZM77.1083 13.8636V21.5H75.6566V13.8636H77.1083ZM80.2156 16.4886H82.4329C83.3675 16.4886 84.0868 16.7206 84.5906 17.1847C85.0943 17.6487 85.3462 18.2469 85.3462 18.9794C85.3462 19.4567 85.2335 19.8859 85.0082 20.267C84.7828 20.6482 84.453 20.9498 84.0188 21.1719C83.5846 21.3906 83.056 21.5 82.4329 21.5H79.0969V13.8636H80.5536V20.2173H82.4329C82.8604 20.2173 83.2118 20.1063 83.4869 19.8842C83.762 19.6589 83.8995 19.3722 83.8995 19.0241C83.8995 18.6562 83.762 18.3563 83.4869 18.1243C83.2118 17.889 82.8604 17.7713 82.4329 17.7713H80.2156V16.4886ZM91.8951 13.8636V15.1463H88.4796V21.5H87.013V13.8636H91.8951ZM94.9228 19.4169L98.2885 13.8636H99.8894V21.5H98.4327V15.9418L95.0819 21.5H93.4661V13.8636H94.9228V19.4169Z" fill="#052802" fill-opacity="0.8"></path> <rect x="0.5" y="0.5" width="108" height="31" rx="3.5" stroke="#D9D9D9"></rect> </svg> 