<?xml version="1.0" encoding="UTF-8"?> <svg xmlns="http://www.w3.org/2000/svg" width="130" height="32" viewBox="0 0 130 32" fill="none"> <rect x="0.5" y="0.5" width="129" height="31" rx="3.5" fill="#F5F5F5"></rect> <g clip-path="url(#clip0_344_609)"> <path fill-rule="evenodd" clip-rule="evenodd" d="M15.1766 7.19409H15.1641C12.0882 8.88837 10 12.1957 10 16.0031C10 19.8105 12.0944 23.1241 15.1766 24.8121L17.2523 16.0031L15.1766 7.19409Z" fill="#010101"></path> <path fill-rule="evenodd" clip-rule="evenodd" d="M19.8905 6.00003C18.1712 6.00003 16.5582 6.43766 15.1453 7.19415L15.1578 7.23791L25.5298 16.0032L15.1578 24.7559L15.1453 24.8059C16.5582 25.5686 18.1712 26 19.8905 26C25.411 26 29.8874 21.5236 29.8874 15.9969C29.8874 10.4764 25.411 5.99377 19.8842 5.99377L19.8905 6.00003Z" fill="#E52628"></path> </g> <path d="M46.4435 16.4091C46.4435 17.4962 46.2447 18.4309 45.8469 19.2131C45.4492 19.992 44.904 20.5919 44.2113 21.0128C43.5219 21.4304 42.738 21.6392 41.8597 21.6392C40.9781 21.6392 40.1909 21.4304 39.4982 21.0128C38.8088 20.5919 38.2653 19.9903 37.8675 19.2081C37.4698 18.4259 37.271 17.4929 37.271 16.4091C37.271 15.322 37.4698 14.389 37.8675 13.6101C38.2653 12.8279 38.8088 12.228 39.4982 11.8104C40.1909 11.3894 40.9781 11.179 41.8597 11.179C42.738 11.179 43.5219 11.3894 44.2113 11.8104C44.904 12.228 45.4492 12.8279 45.8469 13.6101C46.2447 14.389 46.4435 15.322 46.4435 16.4091ZM44.9222 16.4091C44.9222 15.5805 44.788 14.8828 44.5195 14.3161C44.2544 13.746 43.8898 13.3151 43.4258 13.0234C42.9651 12.7285 42.4431 12.581 41.8597 12.581C41.2731 12.581 40.7494 12.7285 40.2887 13.0234C39.828 13.3151 39.4634 13.746 39.195 14.3161C38.9298 14.8828 38.7972 15.5805 38.7972 16.4091C38.7972 17.2377 38.9298 17.937 39.195 18.5071C39.4634 19.0739 39.828 19.5047 40.2887 19.7997C40.7494 20.0914 41.2731 20.2372 41.8597 20.2372C42.4431 20.2372 42.9651 20.0914 43.4258 19.7997C43.8898 19.5047 44.2544 19.0739 44.5195 18.5071C44.788 17.937 44.9222 17.2377 44.9222 16.4091ZM48.2395 24.3636V13.8636H49.6912V15.1016H49.8155C49.9017 14.9425 50.026 14.7585 50.1884 14.5497C50.3508 14.3409 50.5762 14.1586 50.8645 14.0028C51.1529 13.8438 51.534 13.7642 52.008 13.7642C52.6245 13.7642 53.1747 13.92 53.6586 14.2315C54.1425 14.5431 54.522 14.9922 54.7971 15.5788C55.0755 16.1655 55.2147 16.8714 55.2147 17.6967C55.2147 18.522 55.0771 19.2296 54.802 19.8196C54.5269 20.4062 54.1491 20.8587 53.6685 21.1768C53.1879 21.4917 52.6394 21.6491 52.0229 21.6491C51.5589 21.6491 51.1794 21.5713 50.8844 21.4155C50.5927 21.2597 50.3641 21.0774 50.1983 20.8686C50.0326 20.6598 49.905 20.4742 49.8155 20.3118H49.726V24.3636H48.2395ZM49.6962 17.6818C49.6962 18.2187 49.7741 18.6894 49.9299 19.0938C50.0856 19.4981 50.311 19.8146 50.606 20.0433C50.901 20.2687 51.2623 20.3814 51.6898 20.3814C52.1339 20.3814 52.5051 20.2637 52.8034 20.0284C53.1017 19.7898 53.3271 19.4666 53.4796 19.0589C53.6354 18.6513 53.7132 18.1922 53.7132 17.6818C53.7132 17.178 53.637 16.7256 53.4846 16.3246C53.3354 15.9235 53.11 15.607 52.8084 15.375C52.5101 15.143 52.1373 15.027 51.6898 15.027C51.2589 15.027 50.8944 15.138 50.5961 15.3601C50.3011 15.5821 50.0774 15.892 49.9249 16.2898C49.7724 16.6875 49.6962 17.1515 49.6962 17.6818ZM60.4448 13.8636V15.0568H56.2736V13.8636H60.4448ZM57.3922 12.0341H58.8787V19.2578C58.8787 19.5462 58.9218 19.7633 59.008 19.9091C59.0942 20.0516 59.2052 20.1494 59.3411 20.2024C59.4803 20.2521 59.6311 20.277 59.7935 20.277C59.9128 20.277 60.0172 20.2687 60.1067 20.2521C60.1962 20.2356 60.2658 20.2223 60.3155 20.2124L60.584 21.4403C60.4978 21.4735 60.3752 21.5066 60.2161 21.5398C60.057 21.5762 59.8581 21.5961 59.6195 21.5994C59.2284 21.6061 58.8638 21.5365 58.5257 21.3906C58.1877 21.2448 57.9142 21.0194 57.7054 20.7145C57.4966 20.4096 57.3922 20.0268 57.3922 19.5661V12.0341ZM62.0891 21.5V13.8636H63.5756V21.5H62.0891ZM62.8398 12.6854C62.5813 12.6854 62.3593 12.5992 62.1737 12.4268C61.9914 12.2512 61.9002 12.0424 61.9002 11.8004C61.9002 11.5552 61.9914 11.3464 62.1737 11.174C62.3593 10.9983 62.5813 10.9105 62.8398 10.9105C63.0984 10.9105 63.3188 10.9983 63.5011 11.174C63.6867 11.3464 63.7795 11.5552 63.7795 11.8004C63.7795 12.0424 63.6867 12.2512 63.5011 12.4268C63.3188 12.5992 63.0984 12.6854 62.8398 12.6854ZM65.5755 21.5V13.8636H67.0023V15.1065H67.0968C67.2559 14.6856 67.516 14.3575 67.8773 14.1222C68.2386 13.8835 68.6711 13.7642 69.1749 13.7642C69.6853 13.7642 70.1129 13.8835 70.4576 14.1222C70.8056 14.3608 71.0624 14.6889 71.2282 15.1065H71.3077C71.49 14.6989 71.78 14.3741 72.1777 14.1321C72.5755 13.8868 73.0494 13.7642 73.5996 13.7642C74.2923 13.7642 74.8574 13.9813 75.2949 14.4155C75.7357 14.8497 75.9561 15.5043 75.9561 16.3793V21.5H74.4696V16.5185C74.4696 16.0014 74.3288 15.6269 74.0471 15.3949C73.7653 15.1629 73.4289 15.0469 73.0378 15.0469C72.5539 15.0469 72.1777 15.196 71.9093 15.4943C71.6408 15.7893 71.5066 16.1688 71.5066 16.6328V21.5H70.025V16.424C70.025 16.0097 69.8958 15.6766 69.6373 15.4247C69.3787 15.1728 69.0423 15.0469 68.628 15.0469C68.3463 15.0469 68.0861 15.1214 67.8475 15.2706C67.6122 15.4164 67.4216 15.6203 67.2757 15.8821C67.1332 16.1439 67.062 16.4472 67.062 16.7919V21.5H65.5755ZM80.1708 21.669C79.6869 21.669 79.2494 21.5795 78.8583 21.4006C78.4672 21.2183 78.1573 20.9548 77.9286 20.6101C77.7032 20.2654 77.5906 19.8428 77.5906 19.3423C77.5906 18.9115 77.6734 18.5568 77.8391 18.2784C78.0049 18 78.2286 17.7796 78.5103 17.6172C78.792 17.4548 79.1069 17.3321 79.4549 17.2493C79.8029 17.1664 80.1576 17.1035 80.5188 17.0604C80.9762 17.0073 81.3474 16.9643 81.6325 16.9311C81.9175 16.8946 82.1246 16.8366 82.2539 16.7571C82.3832 16.6776 82.4478 16.5483 82.4478 16.3693V16.3345C82.4478 15.9003 82.3252 15.5639 82.0799 15.3253C81.838 15.0866 81.4767 14.9673 80.9961 14.9673C80.4956 14.9673 80.1012 15.0784 79.8129 15.3004C79.5278 15.5192 79.3306 15.7628 79.2212 16.0312L77.8242 15.7131C77.9899 15.2491 78.2319 14.8745 78.5501 14.5895C78.8716 14.3011 79.2411 14.0923 79.6587 13.9631C80.0763 13.8305 80.5155 13.7642 80.9762 13.7642C81.2811 13.7642 81.6043 13.8007 81.9457 13.8736C82.2904 13.9432 82.6119 14.0724 82.9102 14.2614C83.2118 14.4503 83.4587 14.7204 83.6509 15.0717C83.8432 15.4197 83.9393 15.8722 83.9393 16.429V21.5H82.4876V20.456H82.4279C82.3318 20.6482 82.1876 20.8371 81.9954 21.0227C81.8031 21.2083 81.5562 21.3625 81.2546 21.4851C80.953 21.6077 80.5917 21.669 80.1708 21.669ZM80.494 20.4759C80.9049 20.4759 81.2563 20.3946 81.5479 20.2322C81.8429 20.0698 82.0666 19.8577 82.2191 19.5959C82.3749 19.3307 82.4528 19.0473 82.4528 18.7457V17.7614C82.3997 17.8144 82.297 17.8641 82.1445 17.9105C81.9954 17.9536 81.8247 17.9917 81.6325 18.0249C81.4402 18.0547 81.253 18.0829 81.0707 18.1094C80.8884 18.1326 80.7359 18.1525 80.6133 18.169C80.3249 18.2055 80.0614 18.2668 79.8228 18.353C79.5875 18.4392 79.3986 18.5634 79.256 18.7259C79.1168 18.8849 79.0472 19.0971 79.0472 19.3622C79.0472 19.7301 79.1831 20.0085 79.4549 20.1974C79.7267 20.383 80.073 20.4759 80.494 20.4759ZM89.7436 21.5V11.3182H91.2301V15.1016H91.3196C91.4058 14.9425 91.5301 14.7585 91.6925 14.5497C91.8549 14.3409 92.0803 14.1586 92.3686 14.0028C92.657 13.8438 93.0381 13.7642 93.5121 13.7642C94.1286 13.7642 94.6787 13.92 95.1626 14.2315C95.6465 14.5431 96.026 14.9922 96.3011 15.5788C96.5795 16.1655 96.7188 16.8714 96.7188 17.6967C96.7188 18.522 96.5812 19.2296 96.3061 19.8196C96.031 20.4062 95.6532 20.8587 95.1726 21.1768C94.692 21.4917 94.1435 21.6491 93.527 21.6491C93.063 21.6491 92.6835 21.5713 92.3885 21.4155C92.0968 21.2597 91.8681 21.0774 91.7024 20.8686C91.5367 20.6598 91.4091 20.4742 91.3196 20.3118H91.1953V21.5H89.7436ZM91.2003 17.6818C91.2003 18.2187 91.2782 18.6894 91.4339 19.0938C91.5897 19.4981 91.8151 19.8146 92.1101 20.0433C92.4051 20.2687 92.7663 20.3814 93.1939 20.3814C93.638 20.3814 94.0092 20.2637 94.3075 20.0284C94.6058 19.7898 94.8312 19.4666 94.9837 19.0589C95.1394 18.6513 95.2173 18.1922 95.2173 17.6818C95.2173 17.178 95.1411 16.7256 94.9886 16.3246C94.8395 15.9235 94.6141 15.607 94.3125 15.375C94.0142 15.143 93.6413 15.027 93.1939 15.027C92.763 15.027 92.3984 15.138 92.1001 15.3601C91.8052 15.5821 91.5814 15.892 91.429 16.2898C91.2765 16.6875 91.2003 17.1515 91.2003 17.6818ZM100.61 21.669C100.126 21.669 99.6889 21.5795 99.2978 21.4006C98.9067 21.2183 98.5968 20.9548 98.3681 20.6101C98.1427 20.2654 98.03 19.8428 98.03 19.3423C98.03 18.9115 98.1129 18.5568 98.2786 18.2784C98.4443 18 98.668 17.7796 98.9498 17.6172C99.2315 17.4548 99.5463 17.3321 99.8944 17.2493C100.242 17.1664 100.597 17.1035 100.958 17.0604C101.416 17.0073 101.787 16.9643 102.072 16.9311C102.357 16.8946 102.564 16.8366 102.693 16.7571C102.823 16.6776 102.887 16.5483 102.887 16.3693V16.3345C102.887 15.9003 102.765 15.5639 102.519 15.3253C102.277 15.0866 101.916 14.9673 101.436 14.9673C100.935 14.9673 100.541 15.0784 100.252 15.3004C99.9673 15.5192 99.7701 15.7628 99.6607 16.0312L98.2637 15.7131C98.4294 15.2491 98.6713 14.8745 98.9895 14.5895C99.311 14.3011 99.6806 14.0923 100.098 13.9631C100.516 13.8305 100.955 13.7642 101.416 13.7642C101.721 13.7642 102.044 13.8007 102.385 13.8736C102.73 13.9432 103.051 14.0724 103.35 14.2614C103.651 14.4503 103.898 14.7204 104.09 15.0717C104.283 15.4197 104.379 15.8722 104.379 16.429V21.5H102.927V20.456H102.867C102.771 20.6482 102.627 20.8371 102.435 21.0227C102.243 21.2083 101.996 21.3625 101.694 21.4851C101.392 21.6077 101.031 21.669 100.61 21.669ZM100.933 20.4759C101.344 20.4759 101.696 20.3946 101.987 20.2322C102.282 20.0698 102.506 19.8577 102.659 19.5959C102.814 19.3307 102.892 19.0473 102.892 18.7457V17.7614C102.839 17.8144 102.736 17.8641 102.584 17.9105C102.435 17.9536 102.264 17.9917 102.072 18.0249C101.88 18.0547 101.692 18.0829 101.51 18.1094C101.328 18.1326 101.175 18.1525 101.053 18.169C100.764 18.2055 100.501 18.2668 100.262 18.353C100.027 18.4392 99.838 18.5634 99.6955 18.7259C99.5563 18.8849 99.4867 19.0971 99.4867 19.3622C99.4867 19.7301 99.6226 20.0085 99.8944 20.1974C100.166 20.383 100.512 20.4759 100.933 20.4759ZM107.845 16.9659V21.5H106.359V13.8636H107.786V15.1065H107.88C108.056 14.7022 108.331 14.3774 108.705 14.1321C109.083 13.8868 109.559 13.7642 110.132 13.7642C110.652 13.7642 111.108 13.8736 111.499 14.0923C111.89 14.3078 112.194 14.6293 112.409 15.0568C112.625 15.4844 112.732 16.013 112.732 16.6428V21.5H111.246V16.8217C111.246 16.2682 111.102 15.8357 110.813 15.5241C110.525 15.2093 110.129 15.0518 109.625 15.0518C109.28 15.0518 108.974 15.1264 108.705 15.2756C108.44 15.4247 108.23 15.6435 108.074 15.9318C107.921 16.2169 107.845 16.5616 107.845 16.9659ZM116.093 18.9098L116.083 17.0952H116.342L119.384 13.8636H121.164L117.694 17.5426H117.46L116.093 18.9098ZM114.726 21.5V11.3182H116.212V21.5H114.726ZM119.548 21.5L116.814 17.8707L117.838 16.8317L121.373 21.5H119.548Z" fill="#052802" fill-opacity="0.8"></path> <rect x="0.5" y="0.5" width="129" height="31" rx="3.5" stroke="#D9D9D9"></rect> <defs> <clipPath id="clip0_344_609"> <rect width="19.8937" height="20" fill="white" transform="translate(10 6)"></rect> </clipPath> </defs> </svg> 