<?xml version="1.0" encoding="UTF-8"?> <svg xmlns="http://www.w3.org/2000/svg" width="73" height="32" viewBox="0 0 73 32" fill="none"> <rect x="0.5" y="0.5" width="72" height="31" rx="3.5" fill="#F5F5F5"></rect> <path d="M17.3411 12.5444L14.4474 19.4708H12.5596L11.1356 13.9432C11.0491 13.6028 10.974 13.478 10.711 13.3346C10.2818 13.101 9.57291 12.8818 8.94922 12.7457L8.99158 12.5444H12.0305C12.4179 12.5444 12.7661 12.8031 12.854 13.2506L13.6061 17.2586L15.4647 12.5443H17.3411V12.5444ZM24.7381 17.2094C24.7457 15.3813 22.2185 15.2806 22.2359 14.464C22.2413 14.2154 22.4772 13.9512 22.9934 13.8838C23.2493 13.8501 23.9544 13.8245 24.7541 14.1937L25.0678 12.7249C24.6381 12.5684 24.0852 12.4178 23.3973 12.4178C21.632 12.4178 20.3897 13.3593 20.3792 14.7074C20.3678 15.7046 21.2659 16.261 21.9426 16.5923C22.6387 16.9316 22.8722 17.1497 22.8696 17.4532C22.8646 17.9178 22.3144 18.1229 21.8002 18.131C20.9025 18.1449 20.3816 17.8873 19.9664 17.6936L19.6427 19.2111C20.06 19.4031 20.8302 19.5707 21.6288 19.5791C23.505 19.5791 24.7324 18.6493 24.7381 17.2094ZM29.3996 19.4708H31.0514L29.6095 12.5444H28.085C27.7422 12.5444 27.453 12.7447 27.325 13.0526L24.645 19.4708H26.5203L26.8926 18.4362H29.184L29.3996 19.4708ZM27.4068 17.0166L28.3469 14.416L28.8879 17.0166H27.4068ZM19.8928 12.5444L18.416 19.4708H16.6301L18.1075 12.5444H19.8928Z" fill="#1434CB"></path> <path d="M38.1257 11.3182L40.9595 19.6108H41.0739L43.9077 11.3182H45.5682L41.9041 21.5H40.1293L36.4652 11.3182H38.1257ZM46.9192 21.5V13.8636H48.4057V21.5H46.9192ZM47.6699 12.6854C47.4114 12.6854 47.1893 12.5992 47.0037 12.4268C46.8214 12.2512 46.7303 12.0424 46.7303 11.8004C46.7303 11.5552 46.8214 11.3464 47.0037 11.174C47.1893 10.9983 47.4114 10.9105 47.6699 10.9105C47.9284 10.9105 48.1489 10.9983 48.3311 11.174C48.5167 11.3464 48.6096 11.5552 48.6096 11.8004C48.6096 12.0424 48.5167 12.2512 48.3311 12.4268C48.1489 12.5992 47.9284 12.6854 47.6699 12.6854ZM56.1278 15.728L54.7805 15.9666C54.7242 15.7943 54.6347 15.6302 54.5121 15.4744C54.3928 15.3187 54.2304 15.1911 54.0249 15.0916C53.8194 14.9922 53.5625 14.9425 53.2543 14.9425C52.8333 14.9425 52.482 15.0369 52.2003 15.2259C51.9186 15.4115 51.7777 15.6518 51.7777 15.9467C51.7777 16.2019 51.8722 16.4074 52.0611 16.5632C52.25 16.719 52.5549 16.8466 52.9759 16.946L54.1889 17.2244C54.8916 17.3868 55.4152 17.6371 55.7599 17.9751C56.1046 18.3132 56.277 18.7524 56.277 19.2926C56.277 19.75 56.1444 20.1577 55.8793 20.5156C55.6174 20.8703 55.2512 21.1487 54.7805 21.3509C54.3132 21.553 53.7713 21.6541 53.1548 21.6541C52.2997 21.6541 51.602 21.4718 51.0618 21.1072C50.5215 20.7393 50.1901 20.2173 50.0675 19.5412L51.5043 19.3224C51.5938 19.697 51.7777 19.9804 52.0561 20.1726C52.3345 20.3615 52.6974 20.456 53.1449 20.456C53.6321 20.456 54.0215 20.3549 54.3132 20.1527C54.6049 19.9472 54.7507 19.697 54.7507 19.402C54.7507 19.1634 54.6612 18.9628 54.4822 18.8004C54.3066 18.638 54.0365 18.5154 53.6719 18.4325L52.3793 18.1491C51.6667 17.9867 51.1397 17.7282 50.7983 17.3736C50.4602 17.0189 50.2912 16.5698 50.2912 16.0263C50.2912 15.5755 50.4171 15.1811 50.669 14.843C50.9209 14.505 51.2689 14.2415 51.7131 14.0526C52.1572 13.8603 52.666 13.7642 53.2393 13.7642C54.0646 13.7642 54.7143 13.9432 55.1882 14.3011C55.6622 14.6558 55.9754 15.1314 56.1278 15.728ZM60.1337 21.669C59.6498 21.669 59.2123 21.5795 58.8212 21.4006C58.4301 21.2183 58.1202 20.9548 57.8915 20.6101C57.6661 20.2654 57.5534 19.8428 57.5534 19.3423C57.5534 18.9115 57.6363 18.5568 57.802 18.2784C57.9677 18 58.1915 17.7796 58.4732 17.6172C58.7549 17.4548 59.0698 17.3321 59.4178 17.2493C59.7658 17.1664 60.1204 17.1035 60.4817 17.0604C60.9391 17.0073 61.3103 16.9643 61.5953 16.9311C61.8804 16.8946 62.0875 16.8366 62.2168 16.7571C62.3461 16.6776 62.4107 16.5483 62.4107 16.3693V16.3345C62.4107 15.9003 62.2881 15.5639 62.0428 15.3253C61.8008 15.0866 61.4396 14.9673 60.959 14.9673C60.4585 14.9673 60.0641 15.0784 59.7757 15.3004C59.4907 15.5192 59.2935 15.7628 59.1841 16.0312L57.7871 15.7131C57.9528 15.2491 58.1948 14.8745 58.513 14.5895C58.8345 14.3011 59.204 14.0923 59.6216 13.9631C60.0392 13.8305 60.4784 13.7642 60.9391 13.7642C61.244 13.7642 61.5672 13.8007 61.9086 13.8736C62.2533 13.9432 62.5748 14.0724 62.873 14.2614C63.1747 14.4503 63.4216 14.7204 63.6138 15.0717C63.806 15.4197 63.9022 15.8722 63.9022 16.429V21.5H62.4505V20.456H62.3908C62.2947 20.6482 62.1505 20.8371 61.9583 21.0227C61.766 21.2083 61.5191 21.3625 61.2175 21.4851C60.9159 21.6077 60.5546 21.669 60.1337 21.669ZM60.4569 20.4759C60.8678 20.4759 61.2192 20.3946 61.5108 20.2322C61.8058 20.0698 62.0295 19.8577 62.182 19.5959C62.3378 19.3307 62.4157 19.0473 62.4157 18.7457V17.7614C62.3626 17.8144 62.2599 17.8641 62.1074 17.9105C61.9583 17.9536 61.7876 17.9917 61.5953 18.0249C61.4031 18.0547 61.2159 18.0829 61.0336 18.1094C60.8513 18.1326 60.6988 18.1525 60.5762 18.169C60.2878 18.2055 60.0243 18.2668 59.7857 18.353C59.5504 18.4392 59.3614 18.5634 59.2189 18.7259C59.0797 18.8849 59.0101 19.0971 59.0101 19.3622C59.0101 19.7301 59.146 20.0085 59.4178 20.1974C59.6896 20.383 60.0359 20.4759 60.4569 20.4759Z" fill="#052802" fill-opacity="0.8"></path> <rect x="0.5" y="0.5" width="72" height="31" rx="3.5" stroke="#D9D9D9"></rect> </svg> 